<?xml version="1.0" encoding="UTF-8" standalone="no"?>
<!-- Created with Inkscape (http://www.inkscape.org/) -->

<svg
   version="1.1"
   id="svg2"
   width="850.48077"
   height="128.67479"
   viewBox="0 0 850.48076 128.67479"
   xmlns="http://www.w3.org/2000/svg"
   xmlns:svg="http://www.w3.org/2000/svg">
  <defs
     id="defs6">
    <clipPath
       clipPathUnits="userSpaceOnUse"
       id="clipPath22">
      <path
         d="M 0,595.28 H 841.89 V 0 H 0 Z"
         id="path20" />
    </clipPath>
  </defs>
  <g
     id="g10"
     transform="matrix(1.3333333,0,0,-1.3333333,-136.06266,461.19039)">
    <g
       id="g12"
       transform="translate(122.349,298.8903)">
      <path
         d="M 0,0 H 20.301 L 10.2,30.001 Z m 4.7,44.002 h 11 L 40.702,-29.001 H 30.201 L 23.701,-10 H -3.4 l -6.401,-19.001 h -10.501 z"
         style="fill:#231f20;fill-opacity:1;fill-rule:nonzero;stroke:none"
         id="path14" />
    </g>
    <g
       id="g16">
      <g
         id="g18"
         clip-path="url(#clipPath22)">
        <g
           id="g24"
           transform="translate(188.0482,277.8888)">
          <path
             d="M 0,0 C 6,0 10.601,4.001 12.2,8.001 L 20.001,3 C 16.101,-4 9,-9 -0.5,-9 c -12.602,0 -24.002,10 -24.002,24.501 0,14.501 11.4,24.501 24.002,24.501 9.5,0 16.501,-5 20.401,-12.001 l -7.8,-5 C 10.5,27.001 6,31.002 0,31.002 -9.501,31.002 -14.701,24.001 -14.701,15.501 -14.701,7.001 -9.501,0 0,0"
             style="fill:#231f20;fill-opacity:1;fill-rule:nonzero;stroke:none"
             id="path26" />
        </g>
        <g
           id="g28"
           transform="translate(235.0472,277.8888)">
          <path
             d="M 0,0 C 6,0 10.601,4.001 12.2,8.001 L 20.001,3 C 16.101,-4 9,-9 -0.5,-9 c -12.601,0 -24.002,10 -24.002,24.501 0,14.501 11.401,24.501 24.002,24.501 9.5,0 16.501,-5 20.401,-12.001 l -7.8,-5 C 10.5,27.001 6,31.002 0,31.002 -9.501,31.002 -14.701,24.001 -14.701,15.501 -14.701,7.001 -9.501,0 0,0"
             style="fill:#231f20;fill-opacity:1;fill-rule:nonzero;stroke:none"
             id="path30" />
        </g>
        <g
           id="g32"
           transform="translate(269.397,299.6901)">
          <path
             d="m 0,0 h 24.001 c -0.5,5.2 -5.5,9.201 -11.5,9.201 C 5.5,9.201 1.5,5.2 0,0 m -0.5,-8.8 c 0,-7 5,-13.001 13.501,-13.001 6,0 10.101,3 11.601,7.001 l 8.4,-4.001 c -4,-7 -11.001,-12 -20.501,-12 -12.501,0 -23.002,10 -23.002,24.501 0,14.501 10.001,24.501 23.002,24.501 12,0 22.001,-9.5 22.001,-24.001 l -1,-3 z"
             style="fill:#231f20;fill-opacity:1;fill-rule:nonzero;stroke:none"
             id="path34" />
        </g>
        <g
           id="g36"
           transform="translate(320.5443,278.8888)">
          <path
             d="M 0,0 V -9 H -10.001 V 0 67.004 H 0 Z"
             style="fill:#231f20;fill-opacity:1;fill-rule:nonzero;stroke:none"
             id="path38" />
        </g>
        <g
           id="g40"
           transform="translate(337.6001,299.6901)">
          <path
             d="m 0,0 h 24.001 c -0.5,5.2 -5.5,9.201 -11.5,9.201 C 5.5,9.201 1.5,5.2 0,0 m -0.5,-8.8 c 0,-7 5,-13.001 13.501,-13.001 6,0 10.101,3 11.601,7.001 l 8.4,-4.001 c -4,-7 -11.001,-12 -20.501,-12 -12.501,0 -23.002,10 -23.002,24.501 0,14.501 10.001,24.501 23.002,24.501 12,0 22.001,-9.5 22.001,-24.001 l -1,-3 z"
             style="fill:#231f20;fill-opacity:1;fill-rule:nonzero;stroke:none"
             id="path42" />
        </g>
        <g
           id="g44"
           transform="translate(379.1339,316.8912)">
          <path
             d="m 0,0 h 9.001 l 1,-5 0.5,-0.5 0.5,0.5 c 3,4 7,6 11.001,6 2,0 3,0 5,-1 v -9 h -6 c -5.9,0 -10.801,-4.801 -11.001,-10.601 V -47.002 H 0 Z"
             style="fill:#231f20;fill-opacity:1;fill-rule:nonzero;stroke:none"
             id="path46" />
        </g>
        <g
           id="g48"
           transform="translate(464.4446,316.8912)">
          <path
             d="m 0,0 h 9.001 l 1,-5 0.5,-0.5 0.5,0.5 c 3,4 7,6 11.001,6 2,0 3,0 5,-1 v -9 h -6 c -5.9,0 -10.801,-4.801 -11.001,-10.601 V -47.002 H 0 Z"
             style="fill:#231f20;fill-opacity:1;fill-rule:nonzero;stroke:none"
             id="path50" />
        </g>
        <g
           id="g52"
           transform="translate(504.9061,299.6901)">
          <path
             d="m 0,0 h 24.001 c -0.5,5.2 -5.5,9.201 -11.5,9.201 C 5.5,9.201 1.5,5.2 0,0 m -0.5,-8.8 c 0,-7 5,-13.001 13.501,-13.001 6,0 10.101,3 11.601,7.001 l 8.4,-4.001 c -4,-7 -11.001,-12 -20.501,-12 -12.501,0 -23.002,10 -23.002,24.501 0,14.501 10.001,24.501 23.002,24.501 12,0 22.001,-9.5 22.001,-24.001 l -1,-3 z"
             style="fill:#231f20;fill-opacity:1;fill-rule:nonzero;stroke:none"
             id="path54" />
        </g>
        <g
           id="g56"
           transform="translate(569.4061,308.8907)">
          <path
             d="m 0,0 c -9.501,0 -14.602,-7 -14.602,-15.501 0,-8.5 5.101,-15.501 14.602,-15.501 8.5,0 14.501,7.001 14.501,15.501 C 14.501,-7 8.5,0 0,0 m 23.501,-39.002 h -9 l -1,4 -0.5,0.5 -0.501,-0.5 c -3,-3 -8,-5 -13,-5 -13.001,0 -24.002,10 -24.002,24.501 C -24.502,-1 -13.501,9 -0.5,9 c 5,0 10,-2 13,-5 l 0.501,-0.5 0.5,0.5 1,4 h 9 z"
             style="fill:#231f20;fill-opacity:1;fill-rule:nonzero;stroke:none"
             id="path58" />
        </g>
        <g
           id="g60"
           transform="translate(599.9032,316.8912)">
          <path
             d="m 0,0 h 9.101 v 10 l 7.9,10.001 h 1.9 V 0 H 29.002 V -9 H 18.901 v -24.001 c 0,-3.001 2.1,-5.001 5.101,-5.001 l 6,1 v -9 l -5.5,-1 c -10.001,0 -15.401,5 -15.401,14.001 L 9.101,-9 H 0 Z"
             style="fill:#231f20;fill-opacity:1;fill-rule:nonzero;stroke:none"
             id="path62" />
        </g>
        <g
           id="g64"
           transform="translate(433.2404,280.5377)">
          <path
             d="m 0,0 c -6.658,0 -11.062,3.572 -12.981,8.665 -0.621,1.865 -0.952,3.971 -0.952,6.287 0,2.844 0.529,5.384 1.493,7.547 2.142,4.411 6.346,7.405 12.44,7.405 5.535,0 9.962,-3.083 12.261,-7.605 0.904,-2.12 1.408,-4.588 1.408,-7.347 0,-2.759 -0.504,-5.228 -1.409,-7.348 C 9.961,3.083 5.534,0 0,0 m 13.669,37.51 -0.885,-3.509 -0.482,-0.483 -0.245,0.244 c -2.893,2.894 -7.716,4.824 -12.539,4.824 -2.156,0 -4.252,-0.292 -6.249,-0.835 -6.702,-1.56 -11.832,-6.069 -14.574,-12.138 -0.009,-0.017 -0.016,-0.036 -0.024,-0.053 -0.076,-0.169 -0.155,-0.338 -0.227,-0.509 -1.328,-2.998 -2.078,-6.394 -2.078,-10.099 0,-3.202 0.561,-6.173 1.569,-8.856 2.254,-6.375 6.965,-11.116 13.139,-13.228 2.632,-1.005 5.483,-1.549 8.444,-1.549 4.823,0 9.646,1.929 12.539,4.823 l 0.483,0.482 0.483,-0.482 0.245,-0.982 v -2.509 c 0,-10.401 -4.6,-15.601 -14.701,-15.601 -7.3,0 -12.4,5.101 -13.101,11.801 l -9.1,-2.101 c 1.2,-10.3 10.201,-17.901 22.201,-17.901 17.771,0 23.874,11.471 24.091,23.434 h 0.011 v 0.668 22.001 22.502 0.056 z"
             style="fill:#231f20;fill-opacity:1;fill-rule:nonzero;stroke:none"
             id="path66" />
        </g>
        <g
           id="g68"
           transform="translate(651.7486,306.8903)">
          <path
             d="M 0,0 H -11.841 V 10.001 H 0 88.159 V 0 Z"
             style="fill:#0091d1;fill-opacity:1;fill-rule:nonzero;stroke:none"
             id="path70" />
        </g>
        <g
           id="g72"
           transform="translate(648.392,288.3895)">
          <path
             d="M 0,0 H -8.485 V 10.001 H 0 63.169 V 0 Z"
             style="fill:#0091d1;fill-opacity:1;fill-rule:nonzero;stroke:none"
             id="path74" />
        </g>
        <g
           id="g76"
           transform="translate(645.0353,270.0264)">
          <path
             d="M 0,0 H -5.128 V 10.001 H 0 38.179 V 0 Z"
             style="fill:#0091d1;fill-opacity:1;fill-rule:nonzero;stroke:none"
             id="path78" />
        </g>
      </g>
    </g>
  </g>
</svg>
